<svg xmlns="http://www.w3.org/2000/svg" viewBox="0 0 53.1 59"><title>export</title><g id="Layer_2" data-name="Layer 2"><g id="Layer_1-2" data-name="Layer 1"><g id="export"><path d="M42.28,19.67h-5.9a3,3,0,0,0,0,5.9h5.9a4.92,4.92,0,0,1,4.92,4.91v17.7a4.93,4.93,0,0,1-4.92,4.92H10.82A4.93,4.93,0,0,1,5.9,48.18V30.48a4.92,4.92,0,0,1,4.92-4.91h5.9a2.95,2.95,0,1,0,0-5.9h-5.9A10.83,10.83,0,0,0,0,30.48v17.7A10.83,10.83,0,0,0,10.82,59H42.28A10.83,10.83,0,0,0,53.1,48.18V30.48A10.83,10.83,0,0,0,42.28,19.67Z"/><path d="M18.8,14.87l4.8-4.8V42.28a3,3,0,0,0,5.9,0V10.07l4.8,4.8a3,3,0,0,0,4.17,0,3,3,0,0,0,0-4.17L28.64.86a3,3,0,0,0-4.18,0L14.63,10.7a2.95,2.95,0,1,0,4.17,4.17Z"/></g></g></g></svg>